<svg width="159" height="19" viewBox="0 0 159 19" fill="none" xmlns="http://www.w3.org/2000/svg">
<path d="M6.09961 7.83691H9.27246V10.1309H6.09961V13.7168H3.68262V10.1309H0.500977V7.83691H3.68262V4.40039H6.09961V7.83691ZM19.3975 3.62695L14.4492 15H11.7686L16.7256 4.25977H10.3623V2.20312H19.3975V3.62695ZM25.7344 9.79688C25.7344 8.45508 25.9131 7.17773 26.2705 5.96484C26.6279 4.75195 27.1553 3.67969 27.8525 2.74805C28.5498 1.81055 29.3057 1.16016 30.1201 0.796875L30.6123 2.16797C29.7568 2.80078 29.0889 3.7793 28.6084 5.10352C28.1279 6.42773 27.8877 7.97461 27.8877 9.74414V10.0166C27.8877 11.792 28.125 13.3447 28.5996 14.6748C29.0742 16.0049 29.7451 16.998 30.6123 17.6543L30.1201 18.999C29.3232 18.6416 28.5791 18.0088 27.8877 17.1006C27.2021 16.1982 26.6777 15.1553 26.3145 13.9717C25.9512 12.7881 25.7578 11.5518 25.7344 10.2627V9.79688ZM40.6143 15H31.8428V13.2598L35.9824 8.84766C36.5508 8.22656 36.9697 7.68457 37.2393 7.22168C37.5146 6.75879 37.6523 6.31934 37.6523 5.90332C37.6523 5.33496 37.5088 4.88965 37.2217 4.56738C36.9346 4.23926 36.5244 4.0752 35.9912 4.0752C35.417 4.0752 34.9629 4.27441 34.6289 4.67285C34.3008 5.06543 34.1367 5.58398 34.1367 6.22852H31.5879C31.5879 5.44922 31.7725 4.7373 32.1416 4.09277C32.5166 3.44824 33.0439 2.94434 33.7236 2.58105C34.4033 2.21191 35.1738 2.02734 36.0352 2.02734C37.3535 2.02734 38.376 2.34375 39.1025 2.97656C39.835 3.60938 40.2012 4.50293 40.2012 5.65723C40.2012 6.29004 40.0371 6.93457 39.709 7.59082C39.3809 8.24707 38.8184 9.01172 38.0215 9.88477L35.1123 12.9521H40.6143V15ZM44.7627 7.47656H46.1162C46.7607 7.47656 47.2383 7.31543 47.5488 6.99316C47.8594 6.6709 48.0146 6.24316 48.0146 5.70996C48.0146 5.19434 47.8594 4.79297 47.5488 4.50586C47.2441 4.21875 46.8223 4.0752 46.2832 4.0752C45.7969 4.0752 45.3896 4.20996 45.0615 4.47949C44.7334 4.74316 44.5693 5.08887 44.5693 5.5166H42.0293C42.0293 4.84863 42.208 4.25098 42.5654 3.72363C42.9287 3.19043 43.4326 2.77441 44.0771 2.47559C44.7275 2.17676 45.4424 2.02734 46.2217 2.02734C47.5752 2.02734 48.6357 2.35254 49.4033 3.00293C50.1709 3.64746 50.5547 4.53809 50.5547 5.6748C50.5547 6.26074 50.376 6.7998 50.0186 7.29199C49.6611 7.78418 49.1924 8.16211 48.6123 8.42578C49.333 8.68359 49.8691 9.07031 50.2207 9.58594C50.5781 10.1016 50.7568 10.7109 50.7568 11.4141C50.7568 12.5508 50.3408 13.4619 49.5088 14.1475C48.6826 14.833 47.5869 15.1758 46.2217 15.1758C44.9443 15.1758 43.8984 14.8389 43.084 14.165C42.2754 13.4912 41.8711 12.6006 41.8711 11.4932H44.4111C44.4111 11.9736 44.5898 12.3662 44.9473 12.6709C45.3105 12.9756 45.7559 13.1279 46.2832 13.1279C46.8867 13.1279 47.3584 12.9697 47.6982 12.6533C48.0439 12.3311 48.2168 11.9062 48.2168 11.3789C48.2168 10.1016 47.5137 9.46289 46.1074 9.46289H44.7627V7.47656ZM55.0986 7.47656H56.4521C57.0967 7.47656 57.5742 7.31543 57.8848 6.99316C58.1953 6.6709 58.3506 6.24316 58.3506 5.70996C58.3506 5.19434 58.1953 4.79297 57.8848 4.50586C57.5801 4.21875 57.1582 4.0752 56.6191 4.0752C56.1328 4.0752 55.7256 4.20996 55.3975 4.47949C55.0693 4.74316 54.9053 5.08887 54.9053 5.5166H52.3652C52.3652 4.84863 52.5439 4.25098 52.9014 3.72363C53.2646 3.19043 53.7686 2.77441 54.4131 2.47559C55.0635 2.17676 55.7783 2.02734 56.5576 2.02734C57.9111 2.02734 58.9717 2.35254 59.7393 3.00293C60.5068 3.64746 60.8906 4.53809 60.8906 5.6748C60.8906 6.26074 60.7119 6.7998 60.3545 7.29199C59.9971 7.78418 59.5283 8.16211 58.9482 8.42578C59.6689 8.68359 60.2051 9.07031 60.5566 9.58594C60.9141 10.1016 61.0928 10.7109 61.0928 11.4141C61.0928 12.5508 60.6768 13.4619 59.8447 14.1475C59.0186 14.833 57.9229 15.1758 56.5576 15.1758C55.2803 15.1758 54.2344 14.8389 53.4199 14.165C52.6113 13.4912 52.207 12.6006 52.207 11.4932H54.7471C54.7471 11.9736 54.9258 12.3662 55.2832 12.6709C55.6465 12.9756 56.0918 13.1279 56.6191 13.1279C57.2227 13.1279 57.6943 12.9697 58.0342 12.6533C58.3799 12.3311 58.5527 11.9062 58.5527 11.3789C58.5527 10.1016 57.8496 9.46289 56.4434 9.46289H55.0986V7.47656ZM67.333 9.99902C67.333 11.3232 67.1426 12.5977 66.7617 13.8223C66.3809 15.0469 65.833 16.1279 65.1182 17.0654C64.4033 18.0029 63.6387 18.6475 62.8242 18.999L62.332 17.6543C63.1641 17.0273 63.8203 16.0605 64.3008 14.7539C64.7812 13.4473 65.0303 11.9443 65.0479 10.2451V9.7793C65.0479 8.02734 64.8076 6.4834 64.3271 5.14746C63.8525 3.81152 63.1875 2.80957 62.332 2.1416L62.8242 0.796875C63.6211 1.14258 64.3711 1.76953 65.0742 2.67773C65.7832 3.58594 66.3311 4.64355 66.7178 5.85059C67.1104 7.05762 67.3154 8.30859 67.333 9.60352V9.99902ZM82.4502 15H73.6787V13.2598L77.8184 8.84766C78.3867 8.22656 78.8057 7.68457 79.0752 7.22168C79.3506 6.75879 79.4883 6.31934 79.4883 5.90332C79.4883 5.33496 79.3447 4.88965 79.0576 4.56738C78.7705 4.23926 78.3604 4.0752 77.8271 4.0752C77.2529 4.0752 76.7988 4.27441 76.4648 4.67285C76.1367 5.06543 75.9727 5.58398 75.9727 6.22852H73.4238C73.4238 5.44922 73.6084 4.7373 73.9775 4.09277C74.3525 3.44824 74.8799 2.94434 75.5596 2.58105C76.2393 2.21191 77.0098 2.02734 77.8711 2.02734C79.1895 2.02734 80.2119 2.34375 80.9385 2.97656C81.6709 3.60938 82.0371 4.50293 82.0371 5.65723C82.0371 6.29004 81.873 6.93457 81.5449 7.59082C81.2168 8.24707 80.6543 9.01172 79.8574 9.88477L76.9482 12.9521H82.4502V15ZM92.7861 15H84.0146V13.2598L88.1543 8.84766C88.7227 8.22656 89.1416 7.68457 89.4111 7.22168C89.6865 6.75879 89.8242 6.31934 89.8242 5.90332C89.8242 5.33496 89.6807 4.88965 89.3936 4.56738C89.1064 4.23926 88.6963 4.0752 88.1631 4.0752C87.5889 4.0752 87.1348 4.27441 86.8008 4.67285C86.4727 5.06543 86.3086 5.58398 86.3086 6.22852H83.7598C83.7598 5.44922 83.9443 4.7373 84.3135 4.09277C84.6885 3.44824 85.2158 2.94434 85.8955 2.58105C86.5752 2.21191 87.3457 2.02734 88.207 2.02734C89.5254 2.02734 90.5479 2.34375 91.2744 2.97656C92.0068 3.60938 92.373 4.50293 92.373 5.65723C92.373 6.29004 92.209 6.93457 91.8809 7.59082C91.5527 8.24707 90.9902 9.01172 90.1934 9.88477L87.2842 12.9521H92.7861V15ZM103.122 15H94.3506V13.2598L98.4902 8.84766C99.0586 8.22656 99.4775 7.68457 99.7471 7.22168C100.022 6.75879 100.16 6.31934 100.16 5.90332C100.16 5.33496 100.017 4.88965 99.7295 4.56738C99.4424 4.23926 99.0322 4.0752 98.499 4.0752C97.9248 4.0752 97.4707 4.27441 97.1367 4.67285C96.8086 5.06543 96.6445 5.58398 96.6445 6.22852H94.0957C94.0957 5.44922 94.2803 4.7373 94.6494 4.09277C95.0244 3.44824 95.5518 2.94434 96.2314 2.58105C96.9111 2.21191 97.6816 2.02734 98.543 2.02734C99.8613 2.02734 100.884 2.34375 101.61 2.97656C102.343 3.60938 102.709 4.50293 102.709 5.65723C102.709 6.29004 102.545 6.93457 102.217 7.59082C101.889 8.24707 101.326 9.01172 100.529 9.88477L97.6201 12.9521H103.122V15ZM109.731 10.5439H104.783V8.49609H109.731V10.5439ZM120.437 15H111.665V13.2598L115.805 8.84766C116.373 8.22656 116.792 7.68457 117.062 7.22168C117.337 6.75879 117.475 6.31934 117.475 5.90332C117.475 5.33496 117.331 4.88965 117.044 4.56738C116.757 4.23926 116.347 4.0752 115.813 4.0752C115.239 4.0752 114.785 4.27441 114.451 4.67285C114.123 5.06543 113.959 5.58398 113.959 6.22852H111.41C111.41 5.44922 111.595 4.7373 111.964 4.09277C112.339 3.44824 112.866 2.94434 113.546 2.58105C114.226 2.21191 114.996 2.02734 115.857 2.02734C117.176 2.02734 118.198 2.34375 118.925 2.97656C119.657 3.60938 120.023 4.50293 120.023 5.65723C120.023 6.29004 119.859 6.93457 119.531 7.59082C119.203 8.24707 118.641 9.01172 117.844 9.88477L114.935 12.9521H120.437V15ZM130.772 15H122.001V13.2598L126.141 8.84766C126.709 8.22656 127.128 7.68457 127.397 7.22168C127.673 6.75879 127.811 6.31934 127.811 5.90332C127.811 5.33496 127.667 4.88965 127.38 4.56738C127.093 4.23926 126.683 4.0752 126.149 4.0752C125.575 4.0752 125.121 4.27441 124.787 4.67285C124.459 5.06543 124.295 5.58398 124.295 6.22852H121.746C121.746 5.44922 121.931 4.7373 122.3 4.09277C122.675 3.44824 123.202 2.94434 123.882 2.58105C124.562 2.21191 125.332 2.02734 126.193 2.02734C127.512 2.02734 128.534 2.34375 129.261 2.97656C129.993 3.60938 130.359 4.50293 130.359 5.65723C130.359 6.29004 130.195 6.93457 129.867 7.59082C129.539 8.24707 128.977 9.01172 128.18 9.88477L125.271 12.9521H130.772V15ZM137.382 10.5439H132.434V8.49609H137.382V10.5439ZM148.087 15H139.315V13.2598L143.455 8.84766C144.023 8.22656 144.442 7.68457 144.712 7.22168C144.987 6.75879 145.125 6.31934 145.125 5.90332C145.125 5.33496 144.981 4.88965 144.694 4.56738C144.407 4.23926 143.997 4.0752 143.464 4.0752C142.89 4.0752 142.436 4.27441 142.102 4.67285C141.773 5.06543 141.609 5.58398 141.609 6.22852H139.061C139.061 5.44922 139.245 4.7373 139.614 4.09277C139.989 3.44824 140.517 2.94434 141.196 2.58105C141.876 2.21191 142.646 2.02734 143.508 2.02734C144.826 2.02734 145.849 2.34375 146.575 2.97656C147.308 3.60938 147.674 4.50293 147.674 5.65723C147.674 6.29004 147.51 6.93457 147.182 7.59082C146.854 8.24707 146.291 9.01172 145.494 9.88477L142.585 12.9521H148.087V15ZM158.423 15H149.651V13.2598L153.791 8.84766C154.359 8.22656 154.778 7.68457 155.048 7.22168C155.323 6.75879 155.461 6.31934 155.461 5.90332C155.461 5.33496 155.317 4.88965 155.03 4.56738C154.743 4.23926 154.333 4.0752 153.8 4.0752C153.226 4.0752 152.771 4.27441 152.438 4.67285C152.109 5.06543 151.945 5.58398 151.945 6.22852H149.396C149.396 5.44922 149.581 4.7373 149.95 4.09277C150.325 3.44824 150.853 2.94434 151.532 2.58105C152.212 2.21191 152.982 2.02734 153.844 2.02734C155.162 2.02734 156.185 2.34375 156.911 2.97656C157.644 3.60938 158.01 4.50293 158.01 5.65723C158.01 6.29004 157.846 6.93457 157.518 7.59082C157.189 8.24707 156.627 9.01172 155.83 9.88477L152.921 12.9521H158.423V15Z" fill="#171616"/>
</svg>
